<?xml version="1.0" standalone="no"?>
<!DOCTYPE svg PUBLIC "-//W3C//DTD SVG 20010904//EN"
 "http://www.w3.org/TR/2001/REC-SVG-20010904/DTD/svg10.dtd">
<svg version="1.0" xmlns="http://www.w3.org/2000/svg"
 width="700.000000pt" height="700.000000pt" viewBox="0 0 700.000000 700.000000"
 preserveAspectRatio="xMidYMid meet">
<metadata>
Created by potrace 1.14, written by Peter Selinger 2001-2017
</metadata>
<g transform="translate(0.000000,700.000000) scale(0.100000,-0.100000)"
fill="#000000" stroke="none">
<path d="M3378 6415 c-2 -1 -48 -5 -103 -9 -55 -3 -118 -9 -140 -12 -91 -12
-224 -36 -285 -50 -36 -9 -72 -17 -81 -19 -121 -26 -404 -132 -574 -217 -433
-215 -842 -573 -1102 -963 -111 -166 -124 -189 -202 -346 -141 -283 -246 -615
-277 -882 -4 -28 -8 -54 -9 -57 -8 -13 -19 -227 -19 -360 0 -225 11 -345 50
-545 110 -577 382 -1093 794 -1505 142 -142 162 -160 280 -251 235 -180 461
-309 722 -413 125 -49 360 -121 430 -131 23 -4 45 -8 48 -10 16 -10 239 -43
350 -52 149 -12 562 -4 589 11 3 2 33 6 66 10 50 5 133 21 324 62 63 13 336
111 439 156 551 245 1021 660 1322 1167 211 356 333 705 394 1131 26 179 26
538 1 730 -13 91 -37 227 -50 280 -8 30 -16 66 -19 80 -16 84 -100 332 -148
440 -77 172 -193 377 -287 510 -320 451 -755 804 -1240 1009 -118 49 -152 63
-161 65 -3 1 -41 13 -85 28 -207 68 -411 111 -645 133 -64 7 -377 15 -382 10z
m542 -1473 c122 -27 243 -101 321 -196 44 -53 104 -170 114 -221 4 -16 9 -41
12 -55 2 -14 6 -443 7 -955 2 -971 1 -990 -41 -1105 -64 -176 -249 -326 -443
-358 -60 -11 -1259 -13 -1261 -3 -3 14 -5 2896 -2 2902 1 4 278 7 615 6 502 0
624 -3 678 -15z"/>
<path d="M3210 3500 l0 -875 290 0 290 0 -2 875 -3 875 -288 0 -287 0 0 -875z"/>
</g>
</svg>
