<?xml version="1.0" standalone="no"?>
<!DOCTYPE svg PUBLIC "-//W3C//DTD SVG 20010904//EN"
 "http://www.w3.org/TR/2001/REC-SVG-20010904/DTD/svg10.dtd">
<svg version="1.0" xmlns="http://www.w3.org/2000/svg"
 width="512.000000pt" height="512.000000pt" viewBox="0 0 512.000000 512.000000"
 preserveAspectRatio="xMidYMid meet">
<metadata>
Created by potrace 1.14, written by Peter Selinger 2001-2017
</metadata>
<g transform="translate(0.000000,512.000000) scale(0.100000,-0.100000)"
fill="#000000" stroke="none">
<path d="M2518 4695 c-2 -1 -48 -5 -103 -9 -273 -16 -536 -87 -795 -213 -302
-148 -562 -363 -769 -638 -17 -22 -34 -44 -39 -50 -36 -47 -115 -183 -167
-290 -120 -246 -177 -451 -210 -747 -7 -64 -8 -350 -1 -388 6 -30 12 -77 22
-145 6 -48 9 -62 18 -102 2 -10 9 -38 15 -63 14 -60 67 -234 79 -257 5 -10 26
-56 46 -103 192 -448 590 -851 1052 -1066 188 -87 451 -162 629 -179 39 -4 79
-9 90 -11 25 -5 308 -5 355 0 118 13 166 20 280 42 106 21 320 95 447 154 535
252 950 726 1128 1290 32 102 71 279 82 375 16 143 9 511 -13 620 -2 11 -6 31
-9 45 -3 14 -7 36 -10 50 -4 14 -9 39 -11 55 -14 75 -101 312 -159 430 -114
231 -228 389 -409 570 -135 135 -180 172 -317 265 -222 148 -492 263 -747 315
-155 32 -176 35 -317 41 -66 3 -130 6 -142 8 -13 2 -24 2 -25 1z m387 -1089
c148 -53 258 -178 285 -328 7 -36 10 -301 8 -755 l-3 -698 -24 -58 c-45 -112
-144 -207 -258 -249 -56 -21 -75 -22 -525 -23 l-468 -2 0 1062 c0 584 2 1064
5 1067 3 3 213 4 468 3 414 -1 467 -3 512 -19z"/>
<path d="M2348 3188 c-2 -7 -3 -294 -2 -638 l0 -625 211 -3 c195 -2 211 -1
214 15 2 10 4 297 3 638 l0 620 -211 3 c-164 2 -212 0 -215 -10z"/>
</g>
</svg>
